<?xml version="1.0" standalone="no"?>
<!DOCTYPE svg PUBLIC "-//W3C//DTD SVG 20010904//EN"
 "http://www.w3.org/TR/2001/REC-SVG-20010904/DTD/svg10.dtd">
<svg version="1.0" xmlns="http://www.w3.org/2000/svg"
 width="240.000000pt" height="240.000000pt" viewBox="0 0 240.000000 240.000000"
 preserveAspectRatio="xMidYMid meet">
<metadata>
Created by potrace 1.11, written by Peter Selinger 2001-2013
</metadata>
<g transform="translate(0.000000,240.000000) scale(0.100000,-0.100000)"
fill="#000000" stroke="none">
<path d="M800 2026 c0 -130 3 -175 13 -178 6 -2 50 -4 97 -3 l85 0 3 178 2
177 -100 0 -100 0 0 -174z"/>
<path d="M1356 1890 l-99 -100 19 -22 c28 -32 118 -118 124 -118 3 0 51 46
107 103 l102 103 -67 67 c-37 37 -72 67 -77 67 -6 0 -54 -45 -109 -100z"/>
<path d="M229 1900 l-67 -68 109 -108 109 -109 71 72 72 71 -107 106 c-59 58
-110 105 -114 105 -4 -1 -37 -32 -73 -69z"/>
<path d="M765 1681 c-131 -36 -253 -139 -314 -263 -89 -182 -57 -402 81 -552
22 -24 22 -20 -4 -86 -30 -75 -31 -221 -3 -297 38 -105 143 -211 252 -254 l58
-24 596 -3 c521 -2 602 0 650 14 177 52 300 198 315 374 17 203 -110 390 -303
446 -43 12 -53 20 -54 37 -2 68 -34 165 -77 236 -80 133 -208 230 -357 272
-67 19 -266 17 -320 -3 -40 -15 -41 -15 -83 18 -124 95 -286 126 -437 85z
m222 -197 c26 -9 52 -20 57 -24 5 -5 -13 -33 -43 -65 -64 -71 -117 -179 -133
-273 l-12 -72 -41 -11 c-22 -6 -59 -21 -82 -34 l-43 -23 -30 41 c-60 81 -74
200 -36 292 60 142 220 217 363 169z m612 -108 c100 -37 179 -120 221 -235 23
-60 38 -161 34 -222 -3 -39 -3 -39 34 -39 136 -2 242 -55 290 -145 25 -47 22
-160 -6 -213 -25 -48 -87 -97 -141 -112 -22 -6 -246 -10 -591 -10 -521 1 -558
2 -597 20 -50 22 -94 63 -119 110 -24 46 -25 161 -1 206 42 81 151 137 264
138 l63 1 1 65 c1 68 3 90 20 155 37 148 122 246 248 286 68 22 214 19 280 -5z"/>
<path d="M0 1300 l0 -100 120 0 120 0 0 100 0 100 -120 0 -120 0 0 -100z"/>
<path d="M192 817 c-57 -51 -104 -96 -105 -101 -2 -13 105 -144 118 -145 6 -1
33 19 60 44 28 24 73 64 102 87 29 24 52 48 52 53 0 9 -35 54 -99 125 l-25 28
-103 -91z"/>
</g>
</svg>
